# AST/ASF file generated using VICON BodyLanguage
# -----------------------------------------------
:version 1.10
:name VICON
:units
  mass 1.0
  length 0.45
  angle deg
:documentation
   .ast/.asf automatically generated from VICON data using
   VICON BodyBuilder and BodyLanguage model FoxedUp or BRILLIANT.MOD
:root
   order TX TY TZ RX RY RZ
   axis XYZ
   position 0 0 0  
   orientation 0 -0 0 
:bonedata
  begin
     id 1 
     name lhipjoint
     direction 0.432694 -0.693742 0.575759 
     length 2.19277 
     axis 0 -0 0  XYZ
  end
  begin
     id 2 
     name lfemur
     direction 0.34202 -0.939693 0  
     length 6.69022  
     axis 0 -0 20  XYZ
    dof rx ry rz
    limits (-160.0 20.0)
           (-70.0 70.0)
           (-60.0 70.0)
  end
  begin
     id 3 
     name ltibia
     direction 0.34202 -0.939693 0   
     length 6.50337   
     axis 0 -0 20   XYZ
    dof rx
    limits (-10.0 170.0)
  end
  begin
     id 4 
     name lfoot
     direction 0.158999 -0.435969 0.885805   
     length 2.70564   
     axis -90 -1.13533e-015 20   XYZ
    dof rx rz
    limits (-45.0 90.0)
           (-70.0 20.0)
  end
  begin
     id 5 
     name ltoes
     direction -0.00592919 0.00964381 0.999936   
     length 1.29929   
     axis -90 -1.13533e-015 20   XYZ
    dof rx
    limits (-90.0 20.0)
  end
  begin
     id 6 
     name rhipjoint
     direction -0.414359 -0.700339 0.581234   
     length 2.17212  
     axis 0 -0 0  XYZ 
  end
  begin
     id 7 
     name rfemur
     direction -0.34202 -0.939693 0   
     length 7.17659   
     axis 0 -0 -20   XYZ
    dof rx ry rz
    limits (-160.0 20.0)
           (-70.0 70.0)
           (-70.0 60.0)
  end
  begin
     id 8 
     name rtibia
     direction -0.34202 -0.939693 0   
     length 6.36669   
     axis 0 -0 -20   XYZ
    dof rx
    limits (-10.0 170.0)
 end
 begin
     id 9 
     name rfoot
     direction -0.137064 -0.37658 0.916188   
     length 2.22351  
     axis -90 1.13533e-015 -20   XYZ
    dof rx rz
    limits (-45.0 90.0)
           (-20.0 70.0)
  end
  begin
     id 10 
     name rtoes
     direction -0.000784077 -0.00289101 0.999996   
     length 1.09522   
     axis -90 1.13533e-015 -20   XYZ
    dof rx
    limits (-90.0 20.0)
  end
  begin
     id 11 
     name lowerback
     direction -0.0176242 0.984912 -0.172157   
     length 1.65301   
     axis 0 -0 0   XYZ
    dof rx ry rz
    limits (-20.0 45.0)
           (-30.0 30.0)
           (-30.0 30.0)
  end
  begin
     id 12 
     name upperback
     direction -0.00218128 0.998776 -0.0494072   
     length 1.67776   
     axis 0 -0 0   XYZ
    dof rx ry rz
    limits (-20.0 45.0)
           (-30.0 30.0)
           (-30.0 30.0)
  end
  begin
     id 13 
     name thorax
     direction 0.00544186 0.999658 0.0255711   
     length 1.72293   
     axis 0 -0 0   XYZ
    dof rx ry rz
    limits (-20.0 45.0)
           (-30.0 30.0)
           (-30.0 30.0)
  end
  begin
     id 14 
     name lowerneck
     direction -0.105325 0.983841 0.144785   
     length 2.14226   
     axis 0 -0 0   XYZ
    dof rx ry rz
    limits (-20.0 45.0)
           (-30.0 30.0)
           (-30.0 30.0)
  end
  begin
     id 15 
     name upperneck
     direction 0.0547957 0.988053 -0.144041   
     length 2.17508   
     axis 0 -0 0   XYZ
    dof rx ry rz
    limits (-20.0 45.0)
           (-30.0 30.0)
           (-30.0 30.0)
  end
  begin
     id 16
     name head
     direction 0.0247488 0.997534 -0.0656813  
     length 2.20048  
     axis 0 -0 0   XYZ
    dof rx ry rz
    limits (-20.0 45.0)
           (-30.0 30.0)
           (-30.0 30.0)
  end
  begin
     id 17 
     name lclavicle
     direction 0.820559 0.567247 -0.0701026  
     length 4.09615  
     axis 0 -0 0   XYZ
    dof ry rz
    limits (-20.0 10.0)
           (0.0 20.0)
  end
  begin
     id 18 
     name lhumerus
     direction 0.999977 -0.0067566 -9.96392e-005   
     length 4.59333   
     axis -180 -30 -90   XYZ
    dof rx ry rz
    limits (-60.0 90.0)
           (-90.0 90.0)
           (-90.0 90.0)
  end
  begin
     id 19
     name lradius
     direction 1 -4.48982e-011 -2.53425e-027   
     length 2.81151   
     axis -180 -30 -90   XYZ
    dof rx
    limits (-10.0 170.0)
  end
  begin
     id 20
     name lwrist
     direction 1 -4.48939e-011 -7.39254e-028   
     length 1.40576   
     axis 2.56395e-016 90 90   XYZ
    dof ry
    limits (-180.0 0.0)
 end
  begin
     id 21 
     name lhand
     direction 1 -4.48939e-011 -1.47851e-027   
     length 0.895651   
     axis 9.43423e-016 90 90   XYZ
    dof rx rz
    limits (-90.0 90.0)
           (-45.0 45.0)
  end
  begin
     id 22 
     name lfingers
     direction 1 -4.48978e-011 -2.95702e-027   
     length 0.722097   
     axis 1.88685e-015 90 90   XYZ
    dof rx
    limits (0.0 90.0)
  end
  begin
     id 23
     name lthumb
     direction 0.707107 -6.34931e-011 0.707107   
     length 1.03679   
     axis -90 45 -9.86935e-015   XYZ
    dof rx rz
    limits (-45.0 45.0)
           (-45.0 45.0)
  end
  begin
     id 24 
     name rclavicle
     direction -0.831414 0.553102 -0.0531864   
     length 4.24872  
     axis 0 -0 0   XYZ 
    dof ry rz
    limits (-10.0 20.0)
           (-20.0 0.0)
  end
  begin
     id 25 
     name rhumerus
     direction -0.999916 -0.000939607 0.0129331  
     length 4.74834   
     axis -180 30 90   XYZ
    dof rx ry rz
    limits (-90.0 60.0)
           (-90.0 90.0)
           (-90.0 90.0)
  end
  begin
     id 26 
     name rradius
     direction -1 -4.48956e-011 -1.31752e-027   
     length 2.79907   
     axis -180 30 90   XYZ
    dof rx
    limits (-10.0 170.0)
  end
  begin
     id 27 
     name rwrist
     direction -1 -4.4897e-011 -7.39254e-028   
     length 1.39954   
     axis 2.56395e-016 -90 -90   XYZ
    dof ry
    limits (-180.0 0.0)
  end
  begin
     id 28
     name rhand
     direction -0.999997 -0.00250697 0.000800838   
     length 0.953304   
     axis 9.43423e-016 -90 -90   XYZ
    dof rx rz
    limits (-90.0 90.0)
           (-45.0 45.0)
  end
  begin
     id 29
     name rfingers
     direction -1 -4.48954e-011 -2.95702e-027   
     length 0.763342   
     axis 1.88685e-015 -90 -90   XYZ
    dof rx
    limits (0.0 90.0)
  end
  begin
     id 30
     name rthumb
     direction -0.709701 -0.00217037 0.7045   
     length 1.10115   
     axis -90 -45 9.86935e-015   XYZ
    dof rx rz
    limits (-45.0 45.0)
           (-45.0 45.0)
  end
:hierarchy
  begin
    root lhipjoint rhipjoint lowerback
    lhipjoint lfemur
    lfemur ltibia
    ltibia lfoot
    lfoot ltoes
    rhipjoint rfemur
    rfemur rtibia
    rtibia rfoot
    rfoot rtoes
    lowerback upperback
    upperback thorax
    thorax lowerneck lclavicle rclavicle
    lowerneck upperneck
    upperneck head
    lclavicle lhumerus
    lhumerus lradius
    lradius lwrist
    lwrist lhand lthumb
    lhand lfingers
    rclavicle rhumerus
    rhumerus rradius
    rradius rwrist
    rwrist rhand rthumb
    rhand rfingers
  end

#!OML:ASF G:\ViconDB\ViconDB\414\test\team2\shane.ASF
:FULLY-SPECIFIED
:DEGREES
50
root 6.7868 20.1754 -12.4394 -1.10509 -12.9277 0.217194
lowerback 15.6469 3.36787 2.28099
upperback 6.47575 4.76934 2.11701
thorax -1.8759 2.35955 0.130766
lowerneck -5.1707 -1.67023 -9.33666
upperneck 40.2243 -3.2959 7.02015
head 15.2067 -1.91958 4.25455
rclavicle -6.36111e-015 2.46493e-014
rhumerus -58.1305 13.6586 -31.9556
rradius 56.9896
rwrist 20.7626
rhand -41.7053 -30.6106
rfingers 7.12502
rthumb -14.6113 -60.0759
lclavicle -6.36111e-015 2.46493e-014
lhumerus -21.2773 -59.5715 47.689
lradius 101.922
lwrist 6.83067
lhand -34.9174 -7.76339
lfingers 7.12502
lthumb -8.06508 22.0627
rfemur -5.66184 -20.8131 5.58374
rtibia 25.8163
rfoot 15.7277 1.57881
rtoes -11.9857
lfemur -13.5468 15.6799 3.29576
ltibia 35.2047
lfoot 6.89935 -13.6871
ltoes -12.6625
51
root 6.85635 19.7191 -12.3679 -0.721692 -14.2549 0.677494
lowerback 16.1058 3.62991 1.8484
upperback 6.45345 5.05688 2.09058
thorax -2.17382 2.48988 0.264425
lowerneck -5.81247 -1.72224 -9.44003
upperneck 39.4946 -3.26047 6.97574
head 14.9828 -1.90403 4.2227
rclavicle -1.98785e-015 3.18055e-015
rhumerus -58.5618 11.9866 -32.7795
rradius 55.9644
rwrist 22.6468
rhand -41.5101 -29.6241
rfingers 7.12502
rthumb -14.4231 -59.1029
lclavicle -1.98785e-015 3.18055e-015
lhumerus -38.5957 -19.8179 0.584969
lradius 87.8784
lwrist 17.0158
lhand -39.6285 1.71484
lfingers 7.12502
lthumb -12.6096 31.3143
rfemur -7.36998 -21.6327 5.79329
rtibia 28.7795
rfoot 16.3646 3.65287
rtoes -12.2257
lfemur -14.0235 15.1266 1.52452
ltibia 35.3753
lfoot 7.37783 -14.1399
ltoes -12.8477
52
root 6.93245 19.259 -12.3021 -0.274382 -15.2281 1.19878
lowerback 16.4648 3.89066 1.58837
upperback 6.52698 5.36751 2.30238
thorax -2.3278 2.6337 0.553646
lowerneck -6.5578 -1.92774 -10.0361
upperneck 38.504 -3.32625 6.96803
head 14.6902 -1.98532 4.27314
rclavicle 1.66979e-014 -1.74931e-014
rhumerus -58.8336 10.3547 -33.2469
rradius 54.8502
rwrist 23.2837
rhand -41.2646 -29.0854
rfingers 7.12502
rthumb -14.1866 -58.581
lclavicle 1.66979e-014 -1.74931e-014
lhumerus -40.608 -15.9415 -2.01767
lradius 85.6911
lwrist 16.3075
lhand -40.4557 2.83817
lfingers 7.12502
lthumb -13.4071 32.3868
rfemur -9.01621 -22.4152 5.94334
rtibia 31.4244
rfoot 17.8445 5.73441
rtoes -12.3631
lfemur -15.211 14.5885 -0.453967
ltibia 36.5718
lfoot 7.76364 -14.2521
ltoes -13.2907
53
root 7.01631 18.7914 -12.2466 0.210042 -15.5998 1.87707
lowerback 16.7466 3.99857 1.47763
upperback 6.5299 5.49947 2.42803
thorax -2.4959 2.69286 0.702647
lowerneck -7.08632 -2.16937 -10.4992
upperneck 37.52 -3.50037 6.99839
head 14.373 -2.08929 4.30117
rclavicle -1.43125e-014 -1.11319e-014
rhumerus -59.2609 8.51784 -33.8095
rradius 54.1129
rwrist 22.7734
rhand -40.748 -29.2528
rfingers 7.12502
rthumb -13.6888 -58.7826
lclavicle -1.43125e-014 -1.11319e-014
lhumerus -41.9552 -12.019 -4.00548
lradius 84.1819
lwrist 15.2217
lhand -42.1648 3.87286
lfingers 7.12502
lthumb -15.0539 33.3055
rfemur -10.6296 -23.1252 5.85631
rtibia 33.6936
rfoot 19.9854 7.6168
rtoes -11.5736
lfemur -17.1424 13.8179 -2.74624
ltibia 38.558
lfoot 8.5607 -14.6342
ltoes -13.4569
54
root 7.10565 18.3077 -12.1925 0.64653 -15.614 2.61347
lowerback 17.0614 4.06732 1.67799
upperback 6.59895 5.62663 2.54207
thorax -2.58049 2.75423 0.668222
lowerneck -7.68699 -2.54053 -10.8177
upperneck 36.3707 -3.79773 6.82095
head 14.0159 -2.24344 4.19244
rclavicle -2.10712e-014 4.77083e-015
rhumerus -60.0416 6.4959 -34.4584
rradius 54.047
rwrist 21.1387
rhand -40.2022 -29.1516
rfingers 7.12502
rthumb -13.1627 -58.7162
lclavicle -2.10712e-014 4.77083e-015
lhumerus -42.3588 -7.66981 -5.28941
lradius 83.6149
lwrist 13.7686
lhand -43.3102 4.26958
lfingers 7.12502
lthumb -16.1571 33.6162
rfemur -12.4272 -24.0923 5.58041
rtibia 36.0696
rfoot 19.9028 9.70233
rtoes -13.6149
lfemur -19.5002 13.6385 -5.16147
ltibia 41.1616
lfoot 9.91287 -16.1815
ltoes -12.8932
55
root 7.18709 17.7971 -12.1463 0.946401 -15.3632 3.21967
lowerback 17.503 4.11183 2.04635
upperback 6.7018 5.75503 2.70937
thorax -2.68325 2.81689 0.58825
lowerneck -8.40806 -2.94146 -10.9761
upperneck 35.4537 -4.1543 6.61219
head 13.8052 -2.40854 4.04585
rclavicle 3.97569e-015 -1.43125e-014
rhumerus -60.9121 4.71004 -35.251
rradius 54.4613
rwrist 18.5618
rhand -39.9273 -29.6541
rfingers 7.12502
rthumb -12.8977 -59.2355
lclavicle 3.97569e-015 -1.43125e-014
lhumerus -42.3211 -3.54777 -5.8533
lradius 84.1589
lwrist 11.8351
lhand -44.6882 5.72496
lfingers 7.12502
lthumb -17.4836 34.9587
rfemur -13.9751 -24.5845 5.29428
rtibia 39.1763
rfoot 7.2691 8.77453
rtoes -33.8445
lfemur -21.9036 13.5009 -7.36509
ltibia 44.1747
lfoot 11.1931 -18.0166
ltoes -11.7289
56
root 7.26249 17.2609 -12.1227 1.08975 -15.1903 3.90939
lowerback 18.29 4.27895 2.21565
upperback 6.77658 6.02458 2.85527
thorax -3.01152 2.94278 0.54037
lowerneck -9.0828 -3.39519 -11.1836
upperneck 34.4724 -4.62447 6.54616
head 13.5795 -2.61266 3.94913
rclavicle -5.64548e-014 0
rhumerus -61.7229 3.02146 -36.044
rradius 55.0635
rwrist 16.4333
rhand -39.5418 -29.7013
rfingers 7.12502
rthumb -12.5261 -59.3058
lclavicle -5.64548e-014 0
lhumerus -41.8371 0.50798 -5.53496
lradius 85.8906
lwrist 11.3927
lhand -45.5515 5.16899
lfingers 7.12502
lthumb -18.3143 34.3268
rfemur -14.072 -25.2889 4.6775
rtibia 42.6537
rfoot -4.74841 6.42362
rtoes -23.6131
lfemur -24.4048 13.3625 -9.48966
ltibia 47.9104
lfoot 4.3254 -16.1917
ltoes -27.9826
57
root 7.33459 16.7753 -12.109 1.18389 -15.1004 4.45296
lowerback 19.1301 4.39672 2.50754
upperback 6.87617 6.25194 2.95342
thorax -3.31932 3.04802 0.376912
lowerneck -9.56225 -3.80348 -11.0557
upperneck 33.2748 -5.05091 6.27414
head 13.1999 -2.78321 3.71057
rclavicle -2.3059e-014 -4.77083e-015
rhumerus -61.9291 2.06358 -37.3493
rradius 55.4653
rwrist 14.9658
rhand -39.274 -29.9748
rfingers 7.12502
rthumb -12.2679 -59.5949
lclavicle -2.3059e-014 -4.77083e-015
lhumerus -41.1241 4.34069 -4.53189
lradius 88.0611
lwrist 10.1313
lhand -46.0867 5.0804
lfingers 7.12502
lthumb -18.8291 34.1891
rfemur -14.3667 -26.874 4.13442
rtibia 46.562
rfoot -13.6341 3.56126
rtoes -22.6812
lfemur -25.6779 13.5092 -11.2317
ltibia 51.8285
lfoot -5.64225 -11.6056
ltoes -24.9646
58
root 7.39688 16.31 -12.1084 1.24371 -15.4554 4.92533
lowerback 20.186 4.60999 2.6281
upperback 7.01817 6.57027 2.88954
thorax -3.68655 3.19414 0.0991004
lowerneck -10.146 -4.13426 -10.9248
upperneck 32.1032 -5.55585 6.61145
head 12.8854 -2.92023 3.70756
rclavicle 4.13472e-014 -4.6118e-014
rhumerus -61.2265 1.38278 -39.2304
rradius 55.1367
rwrist 14.9652
rhand -39.1211 -29.7308
rfingers 7.12502
rthumb -12.1204 -59.3597
lclavicle 4.13472e-014 -4.6118e-014
lhumerus -39.9921 7.53878 -2.70641
lradius 90.8414
lwrist 9.24777
lhand -47.3154 5.66741
lfingers 7.12502
lthumb -20.0104 34.657
rfemur -16.3588 -29.4473 4.35597
rtibia 50.8192
rfoot -23.4494 0.152224
rtoes -22.7134
lfemur -26.3292 13.9118 -12.1387
ltibia 55.9002
lfoot -14.0566 -8.63177
ltoes -19.1798
59
root 7.47465 15.9174 -12.1095 1.80704 -16.3714 4.36271
lowerback 21.4331 4.70391 3.81575
upperback 6.95747 6.96626 2.8825
thorax -4.2387 3.37179 -0.757989
lowerneck -10.696 -4.2241 -10.203
upperneck 30.9644 -5.68495 6.41457
head 12.505 -2.89451 3.44661
rclavicle -2.46493e-014 2.54444e-014
rhumerus -59.3164 1.29079 -41.3675
rradius 53.8138
rwrist 16.707
rhand -38.7976 -28.9694
rfingers 7.12502
rthumb -11.8085 -58.6165
lclavicle -2.46493e-014 2.54444e-014
lhumerus -38.7811 9.7702 -0.289076
lradius 93.5894
lwrist 8.16627
lhand -48.6396 6.42308
lfingers 7.12502
lthumb -21.2829 35.2745
rfemur -19.0673 -29.8412 5.77902
rtibia 55.3083
rfoot -29.3715 -3.08953
rtoes -13.5875
lfemur -27.5653 14.8919 -12.0375
ltibia 59.3179
lfoot -20.8004 -5.72074
ltoes -18.9624
60
root 7.56857 15.5531 -12.1084 3.26459 -17.9091 3.51772
lowerback 22.0249 4.83633 4.97116
upperback 6.76662 7.40587 2.89247
thorax -4.5818 3.56762 -1.54625
lowerneck -11.4374 -4.11828 -9.40541
upperneck 29.7039 -5.44282 5.91354
head 12.0772 -2.73658 3.10959
rclavicle -3.4191e-014 -3.97569e-014
rhumerus -55.7865 1.33734 -43.4733
rradius 51.438
rwrist 19.4081
rhand -38.3571 -27.5124
rfingers 7.12502
rthumb -11.3837 -57.1834
lclavicle -3.4191e-014 -3.97569e-014
lhumerus -37.5784 11.7522 2.73005
lradius 96.1914
lwrist 6.90363
lhand -49.1786 6.28954
lfingers 7.12502
lthumb -21.8005 35.0817
rfemur -23.3908 -29.1128 8.1793
rtibia 60.3591
rfoot -34.42 -7.40506
rtoes -12.7009
lfemur -29.2547 16.6798 -12.0164
ltibia 61.8689
lfoot -27.4176 -2.4943
ltoes -14.4872
61
root 7.67622 15.2415 -12.1182 5.13619 -19.4794 3.06862
lowerback 22.5015 4.85111 5.76124
upperback 6.50288 7.61516 2.69492
thorax -4.96378 3.64443 -2.29652
lowerneck -12.6475 -3.6713 -8.25396
upperneck 28.5467 -4.65054 4.96296
head 11.7324 -2.34964 2.62666
rclavicle -4.77083e-014 -7.95139e-015
rhumerus -51.026 1.42917 -45.534
rradius 48.8447
rwrist 22.1281
rhand -37.4915 -25.7429
rfingers 7.12502
rthumb -10.5488 -55.4581
lclavicle -4.77083e-014 -7.95139e-015
lhumerus -36.5169 13.3459 6.1418
lradius 98.6122
lwrist 5.07665
lhand -49.2593 6.75273
lfingers 7.12502
lthumb -21.878 35.5359
rfemur -28.9956 -27.0499 9.54591
rtibia 65.9645
rfoot -35.1541 -9.20256
rtoes -13.2488
lfemur -31.6015 17.6629 -12.4969
ltibia 64.103
lfoot -32.9241 0.821571
ltoes -10.8609
62
root 7.7837 14.9259 -12.1379 6.82745 -21.0757 3.111
lowerback 23.0026 4.80042 5.78127
upperback 6.4311 7.56483 2.50794
thorax -5.26997 3.59894 -2.54581
lowerneck -13.966 -2.97673 -7.11538
upperneck 27.0567 -3.42216 3.64046
head 11.2762 -1.81729 2.07874
rclavicle 6.75868e-014 -3.49861e-014
rhumerus -45.0777 1.28225 -47.4
rradius 46.0861
rwrist 24.6936
rhand -36.3188 -23.8232
rfingers 7.12502
rthumb -9.41738 -53.5929
lclavicle 6.75868e-014 -3.49861e-014
lhumerus -35.5391 14.7301 9.96787
lradius 100.475
lwrist 3.65131
lhand -48.914 6.2813
lfingers 7.12502
lthumb -21.5465 35.1028
rfemur -34.9403 -25.8595 10.0364
rtibia 71.9485
rfoot -34.7485 -9.19348
rtoes -15.0121
lfemur -33.8403 17.4735 -13.2565
ltibia 66.5917
lfoot -37.5532 5.20029
ltoes -11.2865
63
root 7.87448 14.6567 -12.1722 8.4344 -22.2669 2.95851
lowerback 23.635 4.62478 5.83333
upperback 6.50296 7.36809 2.46842
thorax -5.51281 3.48478 -2.62137
lowerneck -15.2129 -2.13238 -5.94291
upperneck 25.3017 -2.03196 2.23745
head 10.7461 -1.21934 1.53569
rclavicle 5.725e-014 -3.18055e-015
rhumerus -38.8122 1.43 -49.397
rradius 43.8181
rwrist 25.5748
rhand -34.9444 -21.8505
rfingers 7.12502
rthumb -8.09112 -51.6756
lclavicle 5.725e-014 -3.18055e-015
lhumerus -34.0981 16.031 14.5385
lradius 101.751
lwrist 1.56878
lhand -48.6716 5.7597
lfingers 7.12502
lthumb -21.3136 34.6077
rfemur -40.3413 -25.6204 10.7999
rtibia 77.6088
rfoot -34.3684 -9.10906
rtoes -17.2074
lfemur -36.93 17.0079 -13.5054
ltibia 70.4225
lfoot -40.271 7.37818
ltoes -13.1852
